<?xml version="1.0" encoding="utf-8"?>
<!-- Generator: Adobe Illustrator 25.0.0, SVG Export Plug-In . SVG Version: 6.00 Build 0)  -->
<svg version="1.1" id="Layer_1" xmlns="http://www.w3.org/2000/svg" xmlns:xlink="http://www.w3.org/1999/xlink" x="0px" y="0px"
	 viewBox="0 0 64 64" style="enable-background:new 0 0 64 64;" xml:space="preserve">
<g>
	<path d="M40.25,36.04c-3.76-0.72-7.39,1.74-8.12,5.49c-0.73,3.76,1.73,7.39,5.49,8.12s7.39-1.73,8.12-5.49c0,0,0,0,0,0
		C46.47,40.39,44.01,36.76,40.25,36.04z"/>
	<path d="M22.85,32.69c-3.76-0.73-7.39,1.73-8.12,5.48c-0.73,3.76,1.72,7.4,5.48,8.13c3.76,0.73,7.4-1.72,8.13-5.48c0,0,0,0,0-0.01
		C29.07,37.05,26.61,33.41,22.85,32.69z"/>
	<path d="M23.75,27.96c3.76,0.72,7.39-1.74,8.12-5.49c0.73-3.76-1.73-7.39-5.49-8.12s-7.39,1.73-8.12,5.49c0,0,0,0,0,0
		C17.53,23.6,19.99,27.24,23.75,27.96z"/>
	<path d="M34.9,32.74c0.31-1.67-0.78-3.27-2.44-3.59c-1.67-0.32-3.29,0.77-3.61,2.44s0.77,3.29,2.44,3.61c0.01,0,0.01,0,0.02,0
		C32.97,35.52,34.58,34.42,34.9,32.74z"/>
	<path d="M43.78,17.7c-3.76-0.73-7.39,1.73-8.12,5.49c-0.73,3.76,1.73,7.39,5.49,8.12v0.01c0,0,0.01,0,0.01,0
		c3.76,0.72,7.39-1.75,8.11-5.51C50,22.05,47.54,18.42,43.78,17.7z"/>
	<path d="M0,8v48c0,4.42,3.58,8,8,8h48c4.42,0,8-3.58,8-8V8c0-4.42-3.58-8-8-8H8C3.58,0,0,3.58,0,8z M12.4,10.46
		C12.4,10.45,12.4,10.45,12.4,10.46c1.23-4.64,5.98-7.39,10.61-6.15l5.15,1.34c-6.71,0.93-12.81,4.39-17.05,9.67L12.4,10.46z
		 M10.45,51.6C5.83,50.37,3.07,45.62,4.3,41l1.26-4.76c1.06,6.59,4.56,12.55,9.81,16.68L10.45,51.6z M51.6,53.57
		c-1.23,4.63-5.98,7.38-10.6,6.15l-5.29-1.43c6.93-1.02,13.18-4.73,17.38-10.33L51.6,53.57z M56.28,32.01
		c0,13.41-10.88,24.28-24.29,24.27C18.58,56.28,7.71,45.41,7.72,32S18.59,7.72,32,7.73C45.41,7.73,56.28,18.6,56.28,32.01
		C56.28,32.01,56.28,32.01,56.28,32.01z M59.71,22.98l-1.52,5.74c-0.87-7.05-4.53-13.45-10.16-17.78l5.51,1.47
		C58.17,13.63,60.92,18.36,59.71,22.98z"/>
</g>
</svg>
